# xmcd CD database file
#
# Track frame offsets:
#	150
#	15177
#	29190
#	45072
#	58187
#	74400
#	88342
#	102335
#	113375
#	135860
#	151475
#	165047
#	180672
#	191907
#	205405
#	219850
#	234740
#	248135
#	261962
#	275430
#	287462
#	302410
#	315195
#	331180
#
# Disc length: 4608 seconds
#
# Revision: 4
# Processed by: cddbd v1.5.2PL0 Copyright (c) Steve Scherf et al.
# Submitted via: CDex 1.70beta2
#
DISCID=3e11fe18
DTITLE=Mike Brant - L'intégrale [CD1]
DYEAR=2000
DGENRE=Chanson
TTITLE0=Laisse moi t'aimer
TTITLE1=Parceque je t'aime plus que moi
TTITLE2=Un grand bonheur
TTITLE3=Au pays de ma maison
TTITLE4=Mais dans la lumière
TTITLE5=Et je suis heureux
TTITLE6=Nous irons à Sligo
TTITLE7=Mr Shubert i love you
TTITLE8=Holly holly
TTITLE9=Toi, moi, nous
TTITLE10=Arrava
TTITLE11=A corp perdu
TTITLE12=Felicita
TTITLE13=La fille à aimer
TTITLE14=Qui à tort
TTITLE15=Qui Saura
TTITLE16=Sans amis
TTITLE17=C'est ma prière
TTITLE18=L'amour c'est ça, l'amour c'est toi
TTITLE19=She's my live
TTITLE20=Rien qu'une larme
TTITLE21=C'est une belle fête
TTITLE22=Tout donné, Tout repris
TTITLE23=La musique au fond du coeur
EXTD=YEAR: 2000
EXTT0=
EXTT1=
EXTT2=
EXTT3=
EXTT4=
EXTT5=
EXTT6=
EXTT7=
EXTT8=
EXTT9=
EXTT10=
EXTT11=
EXTT12=
EXTT13=
EXTT14=
EXTT15=
EXTT16=
EXTT17=
EXTT18=
EXTT19=
EXTT20=
EXTT21=
EXTT22=
EXTT23=
PLAYORDER=
